<svg xmlns="http://www.w3.org/2000/svg" xmlns:xlink="http://www.w3.org/1999/xlink" viewBox="0 0 270 248">
  <defs>
    <style>
      .cls-1 {
        fill: #377acf;
        font-size: 70px;
        font-family: SegoeUI-Bold, Segoe UI;
        font-weight: 700;
      }

      .cls-2 {
        fill: url(#linear-gradient);
      }
    </style>
    <linearGradient id="linear-gradient" x1="0.5" x2="0.5" y2="1" gradientUnits="objectBoundingBox">
      <stop offset="0" stop-color="#9ec2ef"/>
      <stop offset="1" stop-color="#377acf"/>
    </linearGradient>
  </defs>
  <g id="Group_95" data-name="Group 95" transform="translate(405 -784)">
    <text id="Badunts" class="cls-1" transform="translate(-405 918)"><tspan x="0" y="76">Badunts</tspan></text>
    <path id="Path_65" data-name="Path 65" class="cls-2" d="M35.307,120.9c-2.758,2.759-7.232,4.411-11.969,4.421H23.29a18.124,18.124,0,0,1-12.981-5.088A18.132,18.132,0,0,1,5.22,107.2c.01-4.737,1.664-9.213,4.421-11.97l1.876-1.876a12.589,12.589,0,0,0,8.433,3.191,14.133,14.133,0,0,0,9.273-3.575L75.786,52.361a26.272,26.272,0,0,0,13.769-5.789A2.61,2.61,0,0,0,93.23,42.9,26.269,26.269,0,0,0,56.262,5.936a2.61,2.61,0,0,0-3.668,3.675A26.252,26.252,0,0,0,46.8,23.379l-3.444,3.948a2.61,2.61,0,1,0,3.934,3.431l2.749-3.153L71.559,49.121,25.792,89.04c-3.424,2.986-8.205,3.038-11.123.121L10,84.5c-2.917-2.917-2.865-7.7.121-11.122L35.464,44.324a2.61,2.61,0,1,0-3.934-3.431L6.192,69.943c-4.814,5.518-4.761,13.362.121,18.245l1.5,1.5L5.95,91.543C2.182,95.311.014,101.015,0,107.192a23.312,23.312,0,0,0,6.617,16.732,23.3,23.3,0,0,0,16.672,6.617h.06c6.178-.014,11.881-2.183,15.649-5.95a2.61,2.61,0,0,0-3.691-3.691ZM52.219,22.4a21.041,21.041,0,0,1,4.08-9.062L85.831,42.867a21.055,21.055,0,0,1-9.062,4.081ZM87.795,11.371a21.076,21.076,0,0,1,1.727,27.8L59.991,9.644a21.077,21.077,0,0,1,27.8,1.727Zm0,0" transform="translate(-320 784.001)"/>
    <path id="Path_66" data-name="Path 66" class="cls-2" d="M228.341,309.438c-4.151-4.151-9.176-5.552-14.53-4.051a24.467,24.467,0,0,0-10.125,6.253l-7.721,7.721-8.338,8.339,0,0-5.727,5.727a2.61,2.61,0,1,0,3.69,3.691l5.725-5.725,0,0,16.062-16.062a19.592,19.592,0,0,1,7.842-4.918c3.529-.991,6.613-.1,9.431,2.716,5.535,5.536,2.746,11.444-.444,15.339l-1.584-1.584a2.609,2.609,0,0,0-3.69,0l-13.856,13.855a7.619,7.619,0,0,0-1.518,8.555l-5.126,5.125a2.61,2.61,0,1,0,3.691,3.691l5.126-5.125a7.605,7.605,0,0,0,8.554-1.519l13.855-13.855a2.61,2.61,0,0,0,0-3.691l-1.755-1.757a22.729,22.729,0,0,0,4.595-8.309c1.442-5.27.005-10.255-4.156-14.417Zm-16.229,38.337a2.365,2.365,0,0,1-3.345-3.345l12.01-12.01,3.345,3.345Zm0,0" transform="translate(-453.862 558.743)"/>
    <path id="Path_68" data-name="Path 68" class="cls-2" d="M138.134,136.039a2.609,2.609,0,0,0,3.683-.25l.046-.053a2.61,2.61,0,1,0-3.933-3.432l-.046.053a2.609,2.609,0,0,0,.25,3.682Zm0,0" transform="translate(-421.424 686.885)"/>
    <path id="Path_69" data-name="Path 69" class="cls-2" d="M161.438,432.65l-.049.05a2.61,2.61,0,1,0,3.69,3.691l.05-.05a2.61,2.61,0,1,0-3.691-3.691Zm0,0" transform="translate(-438.706 464.825)"/>
  </g>
</svg>
