<svg xmlns="http://www.w3.org/2000/svg" viewBox="0 0 26.541 35.305">
  <defs>
    <style>
      .cls-1 {
        fill: #377ACF;
        stroke: #377ACF;
      }
    </style>
  </defs>
  <g id="Ativo_0" data-name="Ativo 0" transform="translate(1.5 0.498)">
    <g id="Camada_1" data-name="Camada 1" transform="translate(0 0.003)">
      <path id="Path_97" data-name="Path 97" class="cls-1" d="M32.019,1.9a6.509,6.509,0,0,0-8.666-.471.333.333,0,0,1-.095.085,2.613,2.613,0,0,0-.861.861v0h0a.36.36,0,0,1-.042.054,6.5,6.5,0,0,0-1.389,3.352l-.852.977-9.2,10.547a3.28,3.28,0,0,0,.03,4.515l.37.37,0,0a4.8,4.8,0,0,1,.482.424.358.358,0,0,1,.139.124.33.33,0,0,0,.021.031l.017.017c.024.026.049.05.074.076a1.006,1.006,0,0,1,.139.178.3.3,0,0,1,.044.065l.006-.006a3.115,3.115,0,0,0,2.087.792,3.5,3.5,0,0,0,2.3-.888L28.135,12.96a6.5,6.5,0,0,0,3.375-1.407.335.335,0,0,1,.146-.108,1.554,1.554,0,0,0,.566-.517c.052-.065.1-.123.16-.182a.271.271,0,0,1,.077-.116l-.007-.01A6.51,6.51,0,0,0,32.019,1.9ZM15.763,22.037a2,2,0,0,1-2.752.03l-1.154-1.154a2,2,0,0,1,.03-2.752l9.2-10.546.681-.78,5.324,5.324ZM31.643,9.549a.323.323,0,0,1-.077.11l-.019.019-.014.018h0a9.714,9.714,0,0,1-.723.75.452.452,0,0,1-.2.178,5.21,5.21,0,0,1-2.226,1L22.3,5.545A5.207,5.207,0,0,1,23.312,3.3h0a.478.478,0,0,1,.132-.135.3.3,0,0,1,.054-.074.291.291,0,0,1,.138-.149.285.285,0,0,1,.07-.07h0a.288.288,0,0,1,.129-.129.922.922,0,0,1,.292-.251l.012-.013a.285.285,0,0,1,.1-.1,5.207,5.207,0,0,1,7.4,7.169Z" transform="translate(-9.38 -0.003)"/>
      <path id="Path_98" data-name="Path 98" class="cls-1" d="M9.65,364.658a.646.646,0,0,0-.913,0,4.255,4.255,0,0,1-2.962,1.094H5.764a4.484,4.484,0,0,1-3.212-1.259A4.737,4.737,0,0,1,2,358.787l-.209-.215c-.231-.233-.462-.488-.71-.722A5.675,5.675,0,0,0,0,361.265a5.768,5.768,0,0,0,1.638,4.14,5.757,5.757,0,0,0,4.125,1.638h.015a5.5,5.5,0,0,0,3.875-1.472A.646.646,0,0,0,9.65,364.658Z" transform="translate(-1 -332.74)"/>
      <path id="Path_99" data-name="Path 99" class="cls-1" d="M147.3,310.554c.363.232.71.5,1.044.754a5.484,5.484,0,0,0,.949-1.819,3.823,3.823,0,0,0-4.627-4.572,6.021,6.021,0,0,0-2.506,1.55l-1.908,1.91-2.063,2.067h0l-4.685,4.69,1.029.788,4.567-4.567h0l3.975-3.975a4.843,4.843,0,0,1,1.941-1.217,2.238,2.238,0,0,1,2.334.672C148.679,308.169,148.059,309.591,147.3,310.554Z" transform="translate(-125.878 -283.091)"/>
    </g>
  </g>
</svg>
