<svg width="20" height="40" viewBox="0 0 20 40" fill="none" xmlns="http://www.w3.org/2000/svg">
<path d="M4.21922 7.74673C4.21922 8.75474 4.21922 13.2539 4.21922 13.2539H0V19.9882H4.21922V40H12.8864V19.9887H18.7025C18.7025 19.9887 19.2472 16.7597 19.5112 13.2291C18.7542 13.2291 12.9192 13.2291 12.9192 13.2291C12.9192 13.2291 12.9192 9.31134 12.9192 8.62464C12.9192 7.93644 13.8641 7.01073 14.7981 7.01073C15.7304 7.01073 17.698 7.01073 19.5203 7.01073C19.5203 6.09385 19.5203 2.92584 19.5203 2.40556e-08C17.0875 2.40556e-08 14.3198 2.40556e-08 13.0998 2.40556e-08C4.00497 -0.000464971 4.21922 6.74048 4.21922 7.74673Z" fill="white"/>
</svg>
