<svg width="118" height="108" viewBox="0 0 118 108" fill="none" xmlns="http://www.w3.org/2000/svg">
<g clip-path="url(#clip0)">
<path d="M7.03052 103.603V83.697H13.5383C15.6985 83.697 17.3209 84.1436 18.4055 85.0369C19.4993 85.9301 20.0461 87.2517 20.0461 89.0017C20.0461 89.9314 19.7818 90.7563 19.2532 91.4763C18.7245 92.1873 18.0045 92.7387 17.093 93.1306C18.1685 93.4314 19.0162 94.0056 19.636 94.8533C20.2649 95.6918 20.5793 96.6944 20.5793 97.8611C20.5793 99.6475 20.0006 101.051 18.843 102.072C17.6855 103.093 16.0494 103.603 13.9348 103.603H7.03052ZM9.65552 94.2927V101.457H13.9895C15.2109 101.457 16.1724 101.142 16.8743 100.513C17.5852 99.8754 17.9407 99.0004 17.9407 97.8884C17.9407 95.4913 16.6373 94.2927 14.0305 94.2927H9.65552ZM9.65552 92.1873H13.6204C14.7688 92.1873 15.6848 91.9001 16.3684 91.3259C17.0611 90.7517 17.4075 89.9724 17.4075 88.988C17.4075 87.8943 17.0885 87.1013 16.4504 86.6091C15.8124 86.1078 14.8417 85.8572 13.5383 85.8572H9.65552V92.1873ZM33.2122 103.603C33.0663 103.312 32.9478 102.792 32.8567 102.045C31.6809 103.266 30.2773 103.877 28.6458 103.877C27.1874 103.877 25.9889 103.467 25.05 102.646C24.1204 101.817 23.6555 100.769 23.6555 99.5017C23.6555 97.9613 24.2389 96.7673 25.4055 95.9197C26.5813 95.0629 28.231 94.6345 30.3547 94.6345H32.8157V93.4724C32.8157 92.5883 32.5514 91.8865 32.0227 91.3669C31.4941 90.8383 30.7148 90.574 29.6848 90.574C28.7825 90.574 28.026 90.8018 27.4153 91.2576C26.8046 91.7133 26.4993 92.2647 26.4993 92.9119H23.9563C23.9563 92.1736 24.2161 91.4626 24.7356 90.7791C25.2642 90.0863 25.9752 89.5395 26.8684 89.1384C27.7708 88.7374 28.7597 88.5369 29.8352 88.5369C31.5396 88.5369 32.8749 88.9653 33.8411 89.822C34.8072 90.6697 35.3085 91.8409 35.345 93.3357V100.144C35.345 101.502 35.5181 102.582 35.8645 103.385V103.603H33.2122ZM29.0149 101.676C29.8079 101.676 30.5598 101.47 31.2708 101.06C31.9817 100.65 32.4967 100.117 32.8157 99.4607V96.4255H30.8333C27.7343 96.4255 26.1848 97.3324 26.1848 99.1462C26.1848 99.9392 26.4491 100.559 26.9778 101.006C27.5064 101.452 28.1855 101.676 29.0149 101.676ZM38.6946 96.0837C38.6946 93.8142 39.2323 91.9913 40.3079 90.615C41.3834 89.2296 42.7916 88.5369 44.5325 88.5369C46.2642 88.5369 47.636 89.1293 48.6477 90.3142V82.6033H51.177V103.603H48.8528L48.7297 102.017C47.718 103.257 46.3098 103.877 44.5051 103.877C42.7916 103.877 41.3925 103.175 40.3079 101.771C39.2323 100.368 38.6946 98.5356 38.6946 96.2751V96.0837ZM41.2239 96.3708C41.2239 98.0479 41.5702 99.3604 42.2629 100.308C42.9556 101.256 43.9127 101.73 45.134 101.73C46.7382 101.73 47.9094 101.01 48.6477 99.5701V92.7751C47.8912 91.3806 46.7291 90.6833 45.1614 90.6833C43.9218 90.6833 42.9556 91.1619 42.2629 92.1189C41.5702 93.0759 41.2239 94.4932 41.2239 96.3708ZM64.2473 102.14C63.2629 103.298 61.8183 103.877 59.9133 103.877C58.3365 103.877 57.1334 103.421 56.304 102.51C55.4836 101.589 55.0689 100.231 55.0598 98.4353V88.8103H57.5891V98.3669C57.5891 100.609 58.5006 101.73 60.3235 101.73C62.2558 101.73 63.5409 101.01 64.179 99.5701V88.8103H66.7083V103.603H64.302L64.2473 102.14ZM72.9563 88.8103L73.0383 90.6697C74.1685 89.2478 75.6451 88.5369 77.468 88.5369C80.5943 88.5369 82.1711 90.3005 82.1985 93.8279V103.603H79.6692V93.8142C79.6601 92.7478 79.414 91.9594 78.9309 91.449C78.4569 90.9386 77.7141 90.6833 76.7024 90.6833C75.8821 90.6833 75.162 90.9021 74.5422 91.3396C73.9224 91.7771 73.4394 92.3513 73.093 93.0623V103.603H70.5637V88.8103H72.9563ZM89.4446 85.2283V88.8103H92.2063V90.7654H89.4446V99.9392C89.4446 100.532 89.5676 100.978 89.8137 101.279C90.0598 101.571 90.4791 101.717 91.0715 101.717C91.3632 101.717 91.7642 101.662 92.2747 101.552V103.603C91.6093 103.786 90.9622 103.877 90.3333 103.877C89.203 103.877 88.3508 103.535 87.7766 102.851C87.2024 102.168 86.9153 101.197 86.9153 99.9392V90.7654H84.2219V88.8103H86.9153V85.2283H89.4446ZM103.786 99.6794C103.786 98.9958 103.527 98.4672 103.007 98.0935C102.497 97.7107 101.599 97.3826 100.314 97.1091C99.0377 96.8357 98.0214 96.5076 97.2649 96.1248C96.5175 95.7419 95.9615 95.2862 95.5969 94.7576C95.2415 94.2289 95.0637 93.6 95.0637 92.8708C95.0637 91.6586 95.5741 90.6332 96.595 89.7947C97.6249 88.9561 98.9374 88.5369 100.532 88.5369C102.21 88.5369 103.568 88.9698 104.607 89.8357C105.655 90.7016 106.179 91.809 106.179 93.158H103.636C103.636 92.4653 103.34 91.8682 102.747 91.3669C102.164 90.8656 101.426 90.615 100.532 90.615C99.6119 90.615 98.8918 90.8155 98.3723 91.2166C97.8528 91.6176 97.593 92.1417 97.593 92.7888C97.593 93.3995 97.8346 93.8598 98.3176 94.1697C98.8007 94.4796 99.6711 94.7758 100.929 95.0583C102.196 95.3409 103.221 95.6781 104.005 96.0701C104.789 96.462 105.368 96.936 105.741 97.4919C106.124 98.0388 106.316 98.7087 106.316 99.5017C106.316 100.823 105.787 101.885 104.73 102.687C103.672 103.48 102.301 103.877 100.615 103.877C99.4296 103.877 98.3814 103.667 97.47 103.248C96.5585 102.829 95.843 102.245 95.3235 101.498C94.8131 100.741 94.5579 99.9255 94.5579 99.0505H97.0872C97.1327 99.8982 97.47 100.573 98.0989 101.074C98.7369 101.566 99.5754 101.812 100.615 101.812C101.572 101.812 102.337 101.621 102.911 101.238C103.495 100.846 103.786 100.327 103.786 99.6794Z" fill="url(#paint0_linear)"/>
<path d="M50.0074 70.7812C48.3667 72.3964 45.705 73.3636 42.8869 73.3694H42.8583C41.435 73.3992 40.0197 73.1513 38.6943 72.6401C37.3688 72.1289 36.1593 71.3644 35.1357 70.3908C34.1427 69.3797 33.3637 68.1845 32.8439 66.8747C32.3242 65.5649 32.0741 64.1666 32.1081 62.7608C32.1141 59.9877 33.0981 57.3673 34.7383 55.7532L35.8543 54.655C37.2349 55.8659 39.0219 56.5313 40.8713 56.5231C42.907 56.5057 44.8672 55.762 46.388 54.4302L74.0891 30.6564C77.0953 30.3304 79.9408 29.1531 82.2806 27.2674C82.5784 27.5083 82.9567 27.6316 83.3419 27.6133C83.727 27.5949 84.0914 27.4362 84.3642 27.168C84.637 26.8998 84.7986 26.5413 84.8176 26.1623C84.8365 25.7833 84.7115 25.411 84.4669 25.1177C86.9214 22.1659 88.1737 18.4219 87.9806 14.6126C87.7875 10.8033 86.1629 7.20052 83.4221 4.50373C80.6813 1.80695 77.0199 0.208607 73.1489 0.0190241C69.2778 -0.170559 65.4733 1.06215 62.474 3.47781C62.1756 3.23972 61.7981 3.11891 61.4145 3.13875C61.0309 3.15859 60.6683 3.31765 60.397 3.58521C60.1256 3.85276 59.9646 4.20981 59.9452 4.58735C59.9258 4.96489 60.0493 5.33611 60.2918 5.62927C58.3739 7.93086 57.1764 10.731 56.8448 13.6895L54.7959 16.0008C54.6611 16.1519 54.558 16.3277 54.4924 16.5181C54.4267 16.7085 54.4 16.9098 54.4136 17.1104C54.4272 17.3111 54.4809 17.5071 54.5716 17.6872C54.6623 17.8674 54.7883 18.0282 54.9423 18.1603C55.0963 18.2925 55.2752 18.3934 55.469 18.4574C55.6627 18.5213 55.8673 18.547 56.0712 18.533C56.275 18.519 56.474 18.4655 56.6568 18.3757C56.8396 18.2858 57.0025 18.1613 57.1364 18.0094L58.7718 16.1635L71.5744 28.7596L44.3468 52.1294C42.3098 53.8775 39.4655 53.908 37.7295 52.2003L34.9518 49.4716C33.2165 47.7639 33.2474 44.9638 35.0238 42.9604L50.1008 25.9513C50.2356 25.8002 50.3388 25.6244 50.4044 25.434C50.47 25.2436 50.4968 25.0423 50.4832 24.8416C50.4696 24.641 50.4159 24.445 50.3252 24.2648C50.2345 24.0847 50.1085 23.9239 49.9545 23.7917C49.8005 23.6596 49.6215 23.5586 49.4278 23.4947C49.2341 23.4307 49.0295 23.405 48.8256 23.419C48.6218 23.4331 48.4228 23.4865 48.24 23.5764C48.0572 23.6663 47.8942 23.7907 47.7604 23.9427L32.6864 40.9495C29.8225 44.1799 29.854 48.772 32.7584 51.6306L33.6508 52.5088L32.5424 53.5948C30.3008 55.8007 29.011 59.14 29.0027 62.7562C28.9666 64.5641 29.2961 66.3611 29.9719 68.0427C30.6477 69.7242 31.6563 71.2569 32.9392 72.5516C34.2504 73.8101 35.8021 74.8004 37.5045 75.4653C39.2069 76.1302 41.0264 76.4565 42.8577 76.4254H42.8934C46.5688 76.4172 49.9616 75.1474 52.2033 72.9421C52.491 72.6548 52.6516 72.2673 52.6501 71.8639C52.6486 71.4606 52.4852 71.0743 52.1953 70.7891C51.9055 70.5039 51.5129 70.343 51.103 70.3415C50.6932 70.3401 50.2994 70.4981 50.0074 70.7812V70.7812ZM60.0687 13.1163C60.4357 11.1826 61.268 9.36346 62.496 7.81117L80.0651 25.0983C78.4875 26.3067 76.639 27.1259 74.6739 27.4875L60.0687 13.1163ZM81.2335 6.65963C83.3872 8.78523 84.6795 11.6105 84.8687 14.6063C85.0578 17.6021 84.1307 20.563 82.2609 22.9346L64.6924 5.64859C67.1024 3.80879 70.1113 2.89653 73.1557 3.08264C76.2 3.26874 79.071 4.54045 81.2311 6.65963H81.2335Z" fill="url(#paint1_linear)"/>
<path d="M85.2232 49.7534C82.7713 47.3169 79.8031 46.4945 76.6406 47.3756C74.3735 48.0913 72.3192 49.352 70.66 51.0459L66.0994 55.5779L61.1743 60.4726L57.7915 63.8342C57.6441 63.9755 57.5265 64.1445 57.4455 64.3314C57.3646 64.5184 57.3219 64.7195 57.3201 64.923C57.3182 65.1265 57.3572 65.3283 57.4346 65.5167C57.5121 65.705 57.6266 65.8762 57.7714 66.0201C57.9162 66.164 58.0884 66.2778 58.2779 66.3549C58.4675 66.4319 58.6706 66.4707 58.8753 66.4689C59.0801 66.4671 59.2825 66.4248 59.4706 66.3444C59.6588 66.264 59.8289 66.1472 59.9711 66.0007L63.3527 62.6403L72.8402 53.2124C74.13 51.8963 75.7184 50.9064 77.4723 50.3257C79.5568 49.744 81.3784 50.267 83.043 51.9199C86.3124 55.1694 84.665 58.6372 82.7807 60.9234L81.8451 59.9937C81.702 59.8514 81.5321 59.7386 81.3451 59.6616C81.1581 59.5847 80.9577 59.545 80.7553 59.545C80.5529 59.545 80.3524 59.5847 80.1655 59.6616C79.9785 59.7386 79.8086 59.8514 79.6655 59.9937L71.481 68.1262C70.8344 68.7726 70.402 69.6 70.2418 70.4974C70.0815 71.3949 70.2011 72.3196 70.5844 73.1477L67.5566 76.1559C67.4117 76.2978 67.2965 76.4667 67.2177 76.6531C67.1388 76.8394 67.0978 77.0393 67.0971 77.2415C67.0964 77.4436 67.1359 77.6438 67.2134 77.8307C67.2909 78.0176 67.4048 78.1874 67.5486 78.3303C67.6925 78.4732 67.8633 78.5864 68.0514 78.6635C68.2394 78.7405 68.441 78.7797 68.6444 78.779C68.8477 78.7783 69.049 78.7375 69.2365 78.6592C69.424 78.5808 69.594 78.4664 69.7368 78.3224L72.7646 75.3142C73.5976 75.696 74.5284 75.8153 75.4316 75.6559C76.3349 75.4965 77.1674 75.0661 77.8172 74.4226L86.0011 66.2901C86.2902 66.0028 86.4526 65.6131 86.4526 65.2068C86.4526 64.8006 86.2902 64.4109 86.0011 64.1236L84.9644 63.0923C86.2046 61.6746 87.1295 60.0126 87.6786 58.2152C88.5304 55.1218 87.6816 52.1958 85.2237 49.7528L85.2232 49.7534ZM75.637 72.2561C75.375 72.5164 75.0197 72.6627 74.6491 72.6627C74.2786 72.6627 73.9232 72.5164 73.6612 72.2561C73.3992 71.9957 73.252 71.6426 73.252 71.2744C73.252 70.9062 73.3992 70.553 73.6612 70.2926L80.7553 63.2431L82.7311 65.2066L75.637 72.2561Z" fill="url(#paint2_linear)"/>
<path d="M70.2195 23.0863C70.3926 23.2368 70.5939 23.3519 70.8118 23.425C71.0297 23.498 71.2599 23.5277 71.4893 23.5122C71.7187 23.4967 71.9428 23.4364 72.1488 23.3347C72.3547 23.233 72.5385 23.0919 72.6897 22.9195L72.7205 22.8841C72.8735 22.7121 72.9908 22.5117 73.0656 22.2944C73.1404 22.0771 73.1712 21.8472 73.1564 21.618C73.1415 21.3888 73.0812 21.1647 72.9789 20.9588C72.8766 20.7529 72.7344 20.5691 72.5604 20.4181C72.3865 20.2671 72.1842 20.1518 71.9652 20.0789C71.7463 20.0059 71.515 19.9768 71.2847 19.9932C71.0544 20.0096 70.8296 20.0711 70.6233 20.1743C70.417 20.2774 70.2332 20.4202 70.0826 20.5943L70.0518 20.6296C69.9006 20.8019 69.785 21.0021 69.7116 21.2188C69.6382 21.4354 69.6084 21.6644 69.624 21.8925C69.6396 22.1207 69.7002 22.3435 69.8024 22.5483C69.9045 22.7532 70.0463 22.936 70.2195 23.0863Z" fill="url(#paint3_linear)"/>
<path d="M73.7241 67.3651L73.6915 67.3872C73.5253 67.4937 73.3927 67.621 73.3015 67.7619C73.2102 67.9028 73.1622 68.0543 73.16 68.2076C73.1579 68.361 73.2018 68.5131 73.2892 68.655C73.3766 68.797 73.5056 68.9259 73.6689 69.0344C73.8321 69.1428 74.0262 69.2286 74.2399 69.2866C74.4536 69.3447 74.6825 69.3739 74.9134 69.3726C75.1442 69.3712 75.3724 69.3393 75.5845 69.2787C75.7966 69.2182 75.9884 69.1301 76.1487 69.0198L76.182 68.9977C76.3453 68.8907 76.4751 68.7634 76.564 68.623C76.6529 68.4826 76.6991 68.3319 76.7 68.1796C76.7008 68.0273 76.6562 67.8764 76.5689 67.7356C76.4815 67.5948 76.3531 67.4668 76.1909 67.3591C76.0288 67.2514 75.8362 67.1661 75.6242 67.1081C75.4122 67.0501 75.185 67.0205 74.9557 67.021C74.7264 67.0216 74.4995 67.0522 74.2881 67.1113C74.0768 67.1703 73.8851 67.2566 73.7241 67.3651Z" fill="url(#paint4_linear)"/>
</g>
<defs>
<linearGradient id="paint0_linear" x1="101.48" y1="77.6033" x2="101.48" y2="126.987" gradientUnits="userSpaceOnUse">
<stop stop-color="white"/>
<stop offset="1" stop-color="white"/>
</linearGradient>
<linearGradient id="paint1_linear" x1="58.5" y1="0" x2="58.5" y2="76.4274" gradientUnits="userSpaceOnUse">
<stop stop-color="white"/>
<stop offset="1" stop-color="white"/>
</linearGradient>
<linearGradient id="paint2_linear" x1="72.66" y1="47.0322" x2="72.66" y2="78.779" gradientUnits="userSpaceOnUse">
<stop stop-color="white"/>
<stop offset="1" stop-color="white"/>
</linearGradient>
<linearGradient id="paint3_linear" x1="71.39" y1="19.9888" x2="71.39" y2="23.5162" gradientUnits="userSpaceOnUse">
<stop stop-color="white"/>
<stop offset="1" stop-color="white"/>
</linearGradient>
<linearGradient id="paint4_linear" x1="74.93" y1="67.021" x2="74.93" y2="69.3726" gradientUnits="userSpaceOnUse">
<stop stop-color="white"/>
<stop offset="1" stop-color="white"/>
</linearGradient>
<clipPath id="clip0">
<rect width="118" height="108" fill="white"/>
</clipPath>
</defs>
</svg>
